PathFileType	4	(X/Y/Z)	C:\Users\WrightLab\Desktop\Jo\P1_boxCal3.trc
DataRate	CameraRate	NumFrames	NumMarkers	Units	OrigDataRate	OrigDataStartFrame	OrigNumFrames
100.00	100.00	       44	19	mm	100.00	721	       960
Frame#	Time	Headset_Front			Headset_Back			Headset_Left			Headset_Right			Left_Shoulder			Right_Shoulder			Sternum			C7			Left Elbow			Right Elbow			Left Wrist			Right Wrist			Left ASIS			Right ASIS			S2			Left Knee			Right Knee			Left Ankle			Right Ankle			
		X1	Y1	Z1	X2	Y2	Z2	X3	Y3	Z3	X4	Y4	Z4	X5	Y5	Z5	X6	Y6	Z6	X7	Y7	Z7	X8	Y8	Z8	X9	Y9	Z9	X10	Y10	Z10	X11	Y11	Z11	X12	Y12	Z12	X13	Y13	Z13	X14	Y14	Z14	X15	Y15	Z15	X16	Y16	Z16	X17	Y17	Z17	X18	Y18	Z18	X19	Y19	Z19	

721	7.200							-342.61655	1055.87756	2335.37402	-754.82196	923.66168	2454.19434																						-357.91000	815.51410	2242.07739													-447.45288	497.55801	2349.11816				-351.10910	197.34871	2523.00391	
722	7.210							-341.02402	1055.70776	2340.82861	-753.05908	923.45349	2452.44995																						-353.83112	815.50775	2246.23999													-443.79797	497.98892	2358.04614				-353.06876	196.77974	2534.18335	
723	7.220							-338.97839	1056.25330	2345.25391	-751.09778	923.32965	2450.91895																						-349.86548	817.28558	2252.24170													-439.20947	497.81558	2367.31250				-355.10446	196.10580	2543.57886	
724	7.230							-337.04846	1056.85254	2350.62598	-750.03741	923.23053	2449.38916																						-345.67084	817.49554	2256.42578													-436.05820	497.88312	2373.70459				-356.34943	196.24318	2555.30762	
725	7.240							-335.22830	1057.15527	2355.33740				-779.44891	743.96954	3231.92725																			-341.72437	817.81531	2260.03540													-431.72641	497.95639	2380.64819				-357.30762	194.48717	2565.19141	
726	7.250							-332.60446	1057.46301	2360.12280																									-336.45938	817.89429	2267.61475													-428.72882	497.90781	2387.26001				-357.96048	193.50299	2574.35742	
727	7.260							-330.57452	1057.60425	2363.61084																									-332.59433	818.68005	2271.81909													-424.70105	497.14328	2395.07568				-359.37784	193.14455	2581.37183	
728	7.270							-328.14951	1057.66479	2368.57764																									-328.37814	818.94763	2275.39990													-420.80203	498.03152	2403.76953				-359.37543	190.74948	2589.90503	
729	7.280							-325.83932	1058.38538	2373.05469																									-323.95193	819.69971	2281.34814													-417.99078	497.60062	2411.64722				-360.70364	188.32677	2594.82666	
730	7.290							-323.13629	1058.08386	2377.13965																									-320.06033	819.53766	2285.58618													-414.88379	496.86151	2417.70923				-360.74039	185.81471	2600.14844	
731	7.300							-320.20029	1058.04041	2382.40063																									-315.91656	819.41010	2289.10352													-411.30356	495.65906	2426.74146				-360.05295	183.13742	2604.74097	
732	7.310							-317.14761	1058.10327	2387.21826																									-311.96338	819.55389	2292.62964													-408.37103	495.91425	2436.64526				-359.00256	178.33910	2606.72290	
733	7.320							-314.29501	1057.86145	2391.04883																									-307.60571	818.77319	2297.13428													-406.03186	496.29865	2443.48926				-358.73083	175.09329	2609.01392	
734	7.330							-312.39737	1057.15088	2394.11719																									-304.19635	819.11407	2300.41138													-403.34888	495.10977	2452.77222				-358.01294	170.63161	2610.79785	
735	7.340							-308.72003	1057.33179	2399.95728	-750.64960	506.18933	2506.63989																						-299.92679	819.96454	2307.24756													-401.65924	496.36118	2459.81299				-358.10657	167.75284	2613.20410	
736	7.350							-306.19156	1057.20044	2402.90894																									-296.38608	819.02124	2308.74072													-399.43777	495.63037	2466.26318				-356.96674	166.32068	2616.40942	
737	7.360							-303.64438	1056.83655	2406.17725																									-292.54474	819.37097	2313.64819													-397.20761	494.93411	2473.05396				-357.51999	164.64578	2617.27588	
738	7.370							-300.73767	1056.57458	2412.28076	-748.51190	506.22278	2505.09546	-857.93286	467.30350	2884.22852																			-288.70996	819.27881	2319.01660													-395.65564	495.08463	2479.01904				-358.07974	163.15733	2618.07471	
739	7.380							-297.68591	1056.88049	2416.14648	-746.94794	506.68732	2504.85645																						-285.02051	818.96973	2323.52026													-394.61520	495.24384	2483.29370				-359.18201	161.49709	2620.11230	
740	7.390							-295.31558	1056.69897	2420.10132	-745.11566	506.92825	2504.45190																						-281.79846	819.22156	2327.17993													-392.97156	494.82556	2488.81445				-359.27267	160.32388	2620.68237	
741	7.400							-292.69437	1056.41345	2423.35083	-743.73779	507.02612	2504.25122	-489.59555	887.81018	2559.88770																			-277.93292	819.17181	2331.36719													-391.24997	494.55344	2493.98242				-359.63379	159.18475	2621.62573	
742	7.410							-290.01431	1056.86084	2429.17798	-741.75372	507.02643	2503.97168				-485.70523	888.34723	2561.86523							-812.32977	736.99744	2357.58911							-275.37393	819.43365	2335.49512	-868.36371	491.82660	2911.29565										-390.55557	493.96509	2496.11011				-359.64716	158.51714	2622.11353	
743	7.420							-287.14856	1057.27966	2433.66406	-740.28979	507.20944	2503.90186				-481.79788	888.94348	2563.62378																-271.89578	820.07349	2339.83350													-388.54550	494.07367	2500.38208				-359.26669	158.13701	2622.06128	
744	7.430							-284.72650	1057.46887	2438.39307	-738.85699	507.77524	2504.35229				-477.73111	889.25909	2564.95996																-268.64542	820.48639	2344.99438													-387.23370	494.57657	2504.27295				-358.01062	156.53441	2622.15527	
745	7.440							-281.88013	1057.77148	2443.04565	-736.90247	508.15591	2504.43579				-473.71997	889.56226	2565.85059																-266.40109	820.38538	2347.77100													-385.02908	495.86658	2508.26953				-357.60248	156.09233	2622.58008	
746	7.450							-279.30713	1058.11096	2447.76880	-735.45404	508.20856	2504.43335	62.35617	974.72168	1683.16492	-469.87463	890.87201	2567.88184													-794.05975	745.36511	2363.83594	-262.93265	820.58038	2353.53271													-382.62271	496.37845	2510.09326				-357.08823	156.15889	2621.62158	
747	7.460							-276.48172	1058.57983	2452.81494	-734.12238	509.13184	2505.34985																						-260.38422	822.32690	2359.13843													-380.50653	496.72339	2512.59497				-356.86584	155.12027	2620.43750	
748	7.470							-273.61792	1059.32837	2457.18628	-732.16205	509.59991	2505.44409																						-257.09134	822.55157	2364.64941													-377.94592	496.95493	2514.09399				-355.85818	153.87473	2622.00195	
749	7.480							-270.84842	1059.71008	2461.91943	-730.21545	510.49649	2505.48730	-457.14682	1038.96497	1943.54883																			-254.58611	822.66052	2369.38989													-375.61700	497.48962	2517.18506				-355.49182	153.22620	2621.80273	
750	7.490							-268.43781	1059.77258	2465.85938	-728.58459	511.31973	2505.96851				-454.13766	1040.24524	1944.17810							75.15184	976.40967	1700.23804							-251.80621	822.93140	2373.64673													-372.99689	498.78415	2520.90991				-354.42044	152.21606	2622.36914	
751	7.500							-265.54556	1060.23938	2470.62622	-726.27350	511.74991	2505.36426	-450.93115	1041.44714	1944.97864																			-249.23109	822.92719	2377.50195													-370.78619	498.76370	2521.62256				-354.14322	151.22223	2621.56592	
752	7.510							-262.34085	1060.72913	2476.75684	-724.35706	512.40912	2505.06079	-447.97754	1042.07776	1946.08972																			-246.27718	822.68427	2383.11646													-368.01364	499.24100	2524.45337				-353.94226	151.13252	2621.00635	
753	7.520							-259.44431	1060.86829	2481.09644	-722.73627	513.13757	2504.78882	-445.20737	1042.25317	1946.31775																			-243.70840	822.67310	2388.34570													-366.30896	499.96231	2525.67871				-353.73492	150.94876	2621.11377	
754	7.530							-257.06757	1060.78943	2485.87573				-442.19702	1042.47180	1947.39539																			-240.96941	822.38171	2392.94019													-362.80502	500.06165	2528.74976				-353.35672	149.43661	2621.94653	
755	7.540							-254.38693	1060.89014	2490.48584				-439.70572	1042.66699	1947.87915																			-238.20953	821.90363	2398.96460													-359.67889	499.45816	2533.36499				-353.23047	149.18484	2621.90601	
756	7.550							-251.56679	1061.04773	2495.94653	-720.69305	514.50397	2503.44995	-436.86240	1042.42249	1949.09119																			-235.90677	821.68207	2402.95508													-357.91904	499.53659	2533.10083				-353.08371	148.79814	2621.87720	
757	7.560							-249.42804	1060.99609	2500.36304	-720.17065	514.88336	2502.01074	-434.49368	1042.45154	1949.58960																			-232.92850	821.08496	2408.94458													-354.70096	499.18082	2537.25024				-352.48859	147.94637	2622.18701	
758	7.570							-247.04294	1061.01123	2505.37671	-719.90234	514.91699	2500.50024	-432.31488	1042.05701	1951.82068	-760.99677	745.90356	2353.35400																-230.64558	820.65674	2413.21875													-352.88342	499.63776	2537.86133				-352.42609	147.62175	2622.33423	
759	7.580							-245.46777	1060.93738	2509.56274	-719.93115	515.14844	2498.71191	-430.10907	1041.47900	1953.01416																			-227.80611	820.68500	2419.16870													-350.20667	498.94775	2541.14038				-352.27609	147.20447	2622.06128	
760	7.590							-244.24335	1060.80334	2512.78760	-720.24634	515.45233	2496.96509	-428.57111	1041.18225	1954.40686																			-225.29491	820.17902	2423.36011													-347.29730	499.15778	2544.47192				-352.09039	146.91573	2622.00757	
761	7.600							-242.90761	1060.82300	2517.68652	-720.68201	516.15033	2495.07666	-426.25888	1040.92798	1955.86450																			-222.31273	820.09198	2429.21191													-345.87939	498.73129	2544.76929				-351.88684	146.58952	2622.11182	
762	7.610							-241.48332	1061.00366	2521.87695	-721.08380	516.88562	2493.65479																						-219.57497	820.81775	2434.27979													-344.37228	498.98734	2544.08325				-351.96973	146.90007	2620.95996	
763	7.620							-240.57701	1061.69580	2525.65674	-720.84711	517.53564	2492.04395																						-216.99074	821.07336	2439.46509													-342.44937	499.08759	2545.50415				-351.72046	146.66188	2620.95728	
764	7.630							-240.16066	1061.93457	2529.70166	-720.63031	518.41833	2490.23535																						-214.65109	821.63458	2444.48950													-341.09848	500.51962	2546.87134				-351.60034	146.63707	2620.70361	
